<?xml version="1.0"?>
<svg version="1.1" xmlns="http://www.w3.org/2000/svg" width="300px" height="100px" style="border: dashed 2px #aaa"><path fill="#ff0000" d="M1.310546875,56.810546875q0-1.267578125,0.1396484375-3.072265625t0.515625-3.759765625t1.009765625-3.888671875t1.6220703125-3.416015625t2.36328125-2.341796875q1.138671875-0.708984375,2.62109375-0.708984375q0.30078125,0,0.623046875,0.04296875q3.73828125,0.34375,5.7470703125,1.7080078125t2.9326171875,3.458984375t1.07421875,4.76953125t0.150390625,5.6396484375q0,2.384765625-0.4404296875,5.1884765625t-1.5576171875,5.2314453125t-3.0830078125,4.0498046875t-4.9951171875,1.6220703125q-1.84765625,0-3.2333984375-0.6767578125t-2.3525390625-1.8046875t-1.58984375-2.62109375t-0.9453125-3.09375t-0.4619140625-3.2333984375t-0.1396484375-3.09375z M5.671875,55.84375q0,0.923828125,0.021484375,2.2666015625t0.1826171875,2.8251953125t0.4189453125,2.9541015625t0.7626953125,2.6748046875t1.2783203125,1.9765625t1.869140625,0.81640625l0.107421875,0q0.98828125,0,1.76171875-0.751953125q0.81640625-0.794921875,1.4501953125-1.912109375t1.095703125-2.3525390625t0.8271484375-2.1162109375l-0.0859375,0.193359375q0.623046875-1.9765625,0.837890625-4.0498046875t0.21484375-4.0927734375q0-0.966796875-0.12890625-2.3310546875t-0.4189453125-2.8466796875t-0.751953125-2.9326171875t-1.1708984375-2.5244140625t-1.654296875-1.6328125q-0.6875-0.408203125-1.525390625-0.4296875q-0.322265625,0-0.64453125,0.064453125q-1.095703125,0.21484375-1.869140625,1.07421875t-1.2568359375,2.1162109375t-0.7412109375,2.75t-0.3974609375,3.0078125t-0.1611328125,2.900390625t-0.021484375,2.3525390625z M15.361328125,62.4609375l0-0.04296875l0,0.04296875z M24.54955078125,71.61328125q0-0.623046875,0.0537109375-1.310546875t0.0966796875-1.2890625l0.12890625-3.22265625q0.21484375-3.8671875,0.5263671875-7.60546875t0.5263671875-7.5625q0.12890625-2.10546875,0.193359375-4.1357421875t0.193359375-4.1357421875q-0.0859375-0.171875-0.0859375-0.236328125q0-0.30078125,0.2255859375-0.47265625t0.5263671875-0.2900390625t0.6337890625-0.1611328125t0.5048828125-0.04296875l0.494140625,0q0.666015625,0.0859375,0.966796875,0.4189453125t0.38671875,0.794921875t0.04296875,0.98828125t-0.04296875,0.9775390625q0,3.115234375-0.150390625,6.3486328125t-0.34375,6.48828125t-0.3544921875,6.509765625t-0.1611328125,6.4345703125l0,1.50390625q0,1.009765625-0.5693359375,1.33203125t-1.5791015625,0.322265625q-0.880859375,0-1.546875-0.38671875t-0.666015625-1.267578125z M33.5229296875,62.095703125q0-0.4296875,0.0966796875-1.138671875t0.2255859375-1.4072265625t0.30078125-1.2998046875t0.408203125-0.7734375q0.171875-0.171875,0.5908203125-0.34375t0.880859375-0.2470703125t0.859375,0.064453125t0.4833984375,0.5693359375q-0.30078125,0.38671875-0.5478515625,1.3212890625t-0.3759765625,2.0732421875q-0.107421875,0.966796875-0.107421875,1.998046875l0,0.365234375q0.021484375,1.203125,0.21484375,2.212890625t0.5908203125,1.6650390625t1.1064453125,0.6552734375q1.50390625,0,2.75-1.3857421875t2.212890625-3.3837890625t1.697265625-4.2431640625t1.24609375-3.9208984375q0.12890625-0.494140625,0.6123046875-0.666015625t1.0419921875-0.1181640625t0.9990234375,0.2685546875t0.5263671875,0.515625q-0.4296875,3.609375-0.6767578125,7.21875t-0.2470703125,7.26171875q0,0.708984375,0.064453125,1.2998046875t-0.064453125,1.009765625t-0.5693359375,0.666015625t-1.4072265625,0.2470703125q-0.21484375,0-0.5478515625-0.04296875t-0.6875-0.1396484375t-0.6015625-0.2900390625t-0.2470703125-0.451171875q0-1.58984375,0.1181640625-3.265625t0.3330078125-3.244140625q-0.580078125,0.837890625-1.2783203125,1.6650390625t-1.5361328125,1.4931640625t-1.8046875,1.0634765625t-2.083984375,0.3974609375q-1.58984375,0-2.5029296875-0.751953125t-1.375-1.8798828125t-0.580078125-2.4599609375t-0.1181640625-2.578125z M53.77560546875,65.705078125q0-0.794921875,0.0322265625-2.3310546875t0.2255859375-3.1259765625t0.6337890625-2.87890625t1.3212890625-1.654296875q0.21484375-0.0859375,0.6982421875-0.150390625t0.966796875-0.04296875t0.859375,0.171875t0.3759765625,0.55859375q0,0.0859375-0.0859375,0.236328125t-0.451171875,0.47265625q-0.666015625,1.84765625-0.81640625,3.673828125t-0.150390625,3.759765625q0,1.138671875,0.0751953125,2.27734375t0.2470703125,2.298828125q0.34375-0.494140625,0.6982421875-1.482421875t0.751953125-2.1591796875t0.81640625-2.3740234375t0.9453125-2.19140625t1.16015625-1.6328125t1.4287109375-0.64453125q0.880859375,0,1.4716796875,1.1064453125t1.095703125,2.556640625t0.9453125,2.943359375t1.0634765625,2.2880859375q0.30078125-0.30078125,0.4833984375-0.7841796875t0.2900390625-1.0419921875t0.12890625-1.1064453125t0.021484375-0.9345703125q0-0.966796875-0.2900390625-2.0947265625t-0.6123046875-2.1162109375t-0.6123046875-1.6650390625t-0.2900390625-0.7841796875q0-0.171875,0.1826171875-0.279296875t0.4189453125-0.171875t0.4833984375-0.0859375t0.3759765625-0.021484375q0.794921875,0,1.3642578125,0.880859375t0.90234375,2.041015625t0.4833984375,2.3525390625t0.150390625,1.8583984375q0,0.837890625-0.12890625,1.783203125t-0.4833984375,1.7509765625t-1.0419921875,1.3427734375t-1.740234375,0.537109375q-1.267578125,0-2.083984375-0.708984375t-1.3212890625-1.71875t-0.794921875-2.2021484375t-0.5478515625-2.1591796875q-0.494140625,1.138671875-0.90234375,2.87890625t-1.03125,3.416015625t-1.58984375,2.857421875t-2.513671875,1.181640625t-2.2021484375-0.7626953125t-1.0419921875-2.0947265625l0.04296875,0.04296875q-0.2578125-0.966796875-0.3330078125-1.93359375t-0.0751953125-1.93359375z M75.961875,63.986328125q0-1.4609375,0.3974609375-2.814453125t1.1923828125-2.4169921875t1.9873046875-1.697265625t2.7607421875-0.6337890625q0.966796875,0,2.1376953125,0.2900390625t2.2021484375,0.859375t1.71875,1.4501953125t0.6875,2.01953125q0,0.537109375-0.1826171875,0.81640625t-0.7412109375,0.279296875l-0.236328125-0.04296875q0.623046875,1.67578125,1.07421875,3.4375t0.880859375,3.5234375q0.171875,0.34375,0.2578125,0.6123046875t0.0859375,0.5263671875q0,0.34375-0.193359375,0.5693359375t-0.5048828125,0.3330078125t-0.64453125,0.150390625t-0.5908203125,0.04296875q-0.923828125,0-1.3857421875-0.322265625t-0.666015625-0.880859375t-0.2470703125-1.2568359375t-0.171875-1.4072265625q-0.2578125,0.837890625-0.6767578125,1.6328125t-0.98828125,1.4287109375t-1.3427734375,1.009765625t-1.740234375,0.3759765625q-1.41796875,0-2.384765625-0.81640625t-1.5576171875-2.0087890625t-0.859375-2.5458984375t-0.2685546875-2.513671875z M79.01265625,63.685546875q0,0.794921875,0.107421875,1.67578125t0.3544921875,1.740234375t0.6337890625,1.6220703125t0.966796875,1.3427734375q1.052734375-1.138671875,1.5576171875-2.771484375t0.90234375-3.1474609375t0.90234375-2.599609375t1.5576171875-1.0849609375q0.666015625,0,1.1171875,0.236328125q-0.21484375-0.537109375-0.708984375-1.0419921875t-1.1064453125-0.923828125t-1.267578125-0.6875t-1.2353515625-0.2685546875q-0.171875,0-0.3974609375,0.0537109375t-0.3544921875,0.0107421875q-0.880859375,0.2578125-1.4501953125,0.8916015625t-0.923828125,1.4931640625t-0.5048828125,1.76171875t-0.150390625,1.697265625z M94.60322265625,64.09375l0-0.623046875q0-0.7734375,0.04296875-1.4609375q0.04296875-0.966796875,0.04296875-1.58984375q0-0.34375,0.04296875-0.7841796875t0.21484375-0.6982421875q0.21484375-0.21484375,0.5048828125-0.4404296875t0.6337890625-0.2255859375q1.095703125,0,1.71875,0.2470703125t0.666015625,1.0205078125l0.0859375,0.666015625q0.38671875-0.923828125,1.03125-2.2880859375t1.4931640625-2.599609375t1.912109375-2.10546875t2.2451171875-0.8701171875q1.095703125,0,1.8046875,1.03125t1.1279296875,2.6318359375t0.5908203125,3.56640625t0.236328125,3.8564453125t0.0859375,3.4482421875t0.150390625,2.3525390625q0.0859375,0.666015625,0.2900390625,1.4072265625t0.2041015625,1.3642578125q0,0.171875-0.2470703125,0.3330078125t-0.5263671875,0.2685546875t-0.5693359375,0.171875t-0.4189453125,0.064453125q-0.837890625,0-1.1923828125-1.2568359375t-0.4404296875-3.1474609375t-0.0859375-4.0927734375t-0.150390625-4.0927734375t-0.6123046875-3.1474609375t-1.4716796875-1.2998046875q-0.923828125,0-1.912109375,1.1923828125t-1.697265625,3.1689453125q-0.6875,1.9765625-0.9453125,4.490234375q-0.0859375,0.794921875-0.0859375,1.58984375q0,1.740234375,0.365234375,3.48046875q0.04296875,0.30078125-0.2470703125,0.451171875t-0.7197265625,0.236328125t-0.8701171875,0.107421875t-0.6767578125,0.021484375q-0.837890625,0-1.3427734375-0.5908203125t-0.7841796875-1.5146484375t-0.3759765625-2.0732421875t-0.1181640625-2.2666015625z M114.1254296875,63.470703125q0-1.9765625,0.4619140625-3.8779296875t0.7841796875-3.7919921875q0.0859375-0.494140625,0.6767578125-0.6123046875t0.9990234375-0.1181640625q0.708984375,0,1.138671875,0.21484375q0.171875,0.0859375,0.322265625,0.193359375t0.150390625,0.279296875q0,1.84765625-0.4404296875,3.609375t-0.4404296875,3.73828125q0,0.666015625,0.0966796875,1.2568359375t0.1826171875,1.1708984375l0.12890625,0.623046875q0,0.171875,0.021484375,0.30078125t0.064453125,0.30078125q0,0.38671875-0.5478515625,0.5263671875t-0.9560546875,0.1396484375q-0.623046875,0-1.1494140625-0.2470703125t-0.8271484375-0.8486328125l-0.30078125-0.623046875q-0.2578125-0.494140625-0.2578125-1.1064453125t-0.107421875-1.1279296875z M115.5004296875,50.537109375l0-0.408203125q0-1.009765625,0.5048828125-1.8046875t1.5146484375-0.794921875q0.12890625,0,0.2470703125,0.021484375t0.2470703125,0.021484375q0.2578125,0.04296875,0.6767578125,0.2041015625t0.4189453125,0.5048828125l0,0.04296875q-0.0859375,0.171875-0.107421875,0.3544921875t-0.107421875,0.3115234375l0.04296875-0.04296875q-0.2578125,0.666015625-0.4189453125,1.07421875t-0.3544921875,0.6552734375t-0.4833984375,0.3544921875t-0.8271484375,0.107421875q-0.0859375,0-0.30078125-0.021484375t-0.4619140625-0.0859375t-0.4189453125-0.171875t-0.171875-0.322265625z M123.50701171875,55.005859375q0-0.21484375,0.3330078125-0.365234375t0.794921875-0.21484375t0.880859375-0.107421875t0.6337890625-0.04296875q0.0859375-0.580078125,0.2470703125-1.568359375t0.3974609375-2.1162109375t0.5908203125-2.2666015625t0.859375-2.0625t1.1923828125-1.5146484375t1.611328125-0.5908203125l-0.04296875,0q0.30078125-0.04296875,0.5908203125-0.064453125t0.5908203125-0.021484375q0.708984375,0,1.5361328125,0.279296875t1.5361328125,0.7841796875t1.1923828125,1.2138671875t0.4833984375,1.50390625q0,0.623046875-0.3115234375,1.3427734375t-1.0849609375,0.7197265625q-0.2578125,0-0.5263671875-0.12890625t-0.5048828125-0.279296875q0.0859375-0.494140625,0.0859375-0.98828125q0-0.2578125-0.021484375-0.494140625q-0.064453125-0.751953125-0.322265625-1.3212890625t-0.7412109375-0.90234375t-1.1494140625-0.2470703125q-0.880859375,0.12890625-1.3212890625,1.07421875t-0.6123046875,2.2451171875t-0.21484375,2.642578125t-0.171875,2.1806640625q1.009765625,0.0859375,1.7080078125,0.0859375l1.7509765625,0q0.171875,0,0.5908203125,0.021484375t0.81640625,0.0859375t0.708984375,0.2255859375t0.3115234375,0.4189453125q0,0.21484375-0.171875,0.3759765625t-0.4189453125,0.2255859375t-0.515625,0.0859375t-0.4404296875,0.021484375q-0.751953125,0-1.2783203125-0.064453125t-1.009765625-0.1181640625t-1.009765625-0.0537109375t-1.2353515625,0.150390625q-0.21484375,2.384765625-0.34375,4.7265625t-0.12890625,4.7265625q0,3.73828125,0.236328125,7.326171875t0.859375,7.283203125q0.0859375,0.34375,0.150390625,0.7841796875t0.064453125,0.8486328125q0,0.38671875-0.236328125,0.6337890625t-0.5908203125,0.3544921875t-0.73046875,0.150390625t-0.6767578125,0.04296875q-1.224609375,0-1.71875-0.3759765625t-0.708984375-1.5146484375q-0.537109375-3.029296875-0.6875-6.1123046875t-0.150390625-6.2197265625q0-3.072265625,0.2255859375-6.1337890625t0.5693359375-6.0908203125q-0.171875,0-0.5908203125,0.021484375t-0.837890625,0t-0.73046875-0.150390625t-0.3115234375-0.451171875z M139.355390625,64.8671875q0-1.50390625,0.3330078125-3.544921875t1.1279296875-3.8671875t2.0947265625-3.1044921875t3.2763671875-1.2783203125q1.84765625,0,2.771484375,1.0634765625t0.923828125,2.8681640625q0,1.181640625-0.4404296875,2.5888671875t-1.2568359375,2.6640625t-1.93359375,2.0947265625t-2.4921875,0.837890625l-0.55859375-0.04296875q0,0.580078125,0.171875,1.5576171875t0.5048828125,1.9443359375t0.859375,1.697265625t1.2783203125,0.73046875q1.095703125,0,2.10546875-0.880859375t1.912109375-1.955078125t1.67578125-1.955078125t1.41796875-0.880859375q0.34375,0,0.708984375,0.107421875t0.408203125,0.6015625q0,0.30078125-0.1611328125,0.494140625t-0.2900390625,0.4296875q-0.666015625,1.138671875-1.4501953125,2.169921875t-1.7724609375,1.869140625t-2.1591796875,1.3212890625t-2.5888671875,0.4833984375q-1.84765625,0-3.072265625-0.6552734375t-1.9765625-1.76171875t-1.0849609375-2.556640625t-0.3330078125-3.0400390625z M143.20109375,63.234375l0.6015625,0.537109375q0.4296875,0.38671875,0.859375,0.171875t0.7734375-0.7841796875t0.6337890625-1.4072265625t0.515625-1.71875t0.3330078125-1.71875t0.107421875-1.396484375l0-0.73046875t-0.064453125-0.7734375t-0.2255859375-0.6123046875t-0.5048828125-0.3115234375q-0.107421875-0.021484375-0.193359375-0.021484375q-0.73046875,0-1.24609375,0.923828125q-0.55859375,1.03125-0.90234375,2.5029296875t-0.494140625,3.0185546875t-0.193359375,2.3203125z M157.36294921875,58.6044921875q-0.0537109375-0.7197265625,0.0859375-1.3212890625t0.55859375-0.9775390625t1.3427734375-0.3759765625q0.21484375,0,0.5263671875,0.0537109375t0.6123046875,0.1396484375t0.5048828125,0.2578125t0.2041015625,0.47265625l0,2.427734375q0.837890625-0.966796875,1.826171875-1.3857421875t2.255859375-0.4189453125q0.966796875,0,1.912109375,0.4404296875t1.783203125,1.1708984375t1.4501953125,1.611328125t0.8916015625,1.76171875q0.171875-0.794921875,0.38671875-1.9443359375t0.6337890625-2.2021484375t1.1064453125-1.8046875t1.826171875-0.751953125q1.224609375,0,2.0625,0.880859375t1.3642578125,2.2880859375t0.794921875,3.1474609375t0.3974609375,3.4375t0.12890625,3.1689453125l0,2.3095703125q0,0.2578125-0.193359375,0.4189453125t-0.4833984375,0.2470703125t-0.6015625,0.107421875t-0.4833984375,0.021484375q-0.666015625,0-1.2138671875-0.2041015625t-0.5478515625-1.0419921875l0-1.93359375t-0.04296875-2.5029296875t-0.150390625-2.685546875t-0.279296875-2.4384765625t-0.4404296875-1.76171875t-0.6552734375-0.6875q-0.537109375,0-0.7734375,0.6015625t-0.3974609375,1.525390625t-0.2470703125,1.955078125t-0.236328125,1.955078125t-0.4833984375,1.5146484375t-0.9130859375,0.5908203125q-0.623046875,0-1.095703125-0.5908203125t-0.9345703125-1.4716796875t-0.923828125-1.890625t-1.0205078125-1.890625q-0.55859375-0.90234375-1.203125-1.4609375q-0.580078125-0.537109375-1.310546875-0.515625l-0.107421875,0q-0.966796875,0.04296875-1.5146484375,0.6982421875t-0.837890625,1.6005859375t-0.3544921875,2.0302734375t-0.064453125,1.9013671875q0,0.7734375,0.12890625,1.8046875q0.0859375,0.6875,0.0859375,1.310546875q0,0.322265625-0.021484375,0.623046875q-0.064453125,0.90234375-0.4833984375,1.5146484375t-1.5576171875,0.6123046875q-0.4296875,0-1.07421875-0.0859375t-0.859375-0.580078125q-0.494140625-0.880859375-0.751953125-2.2236328125t-0.38671875-2.771484375t-0.150390625-2.8359375t-0.021484375-2.4169921875q0-0.708984375-0.0537109375-1.4287109375z M184.4583984375,63.470703125q0-1.9765625,0.4619140625-3.8779296875t0.7841796875-3.7919921875q0.0859375-0.494140625,0.6767578125-0.6123046875t0.9990234375-0.1181640625q0.708984375,0,1.138671875,0.21484375q0.171875,0.0859375,0.322265625,0.193359375t0.150390625,0.279296875q0,1.84765625-0.4404296875,3.609375t-0.4404296875,3.73828125q0,0.666015625,0.0966796875,1.2568359375t0.1826171875,1.1708984375l0.12890625,0.623046875q0,0.171875,0.021484375,0.30078125t0.064453125,0.30078125q0,0.38671875-0.5478515625,0.5263671875t-0.9560546875,0.1396484375q-0.623046875,0-1.1494140625-0.2470703125t-0.8271484375-0.8486328125l-0.30078125-0.623046875q-0.2578125-0.494140625-0.2578125-1.1064453125t-0.107421875-1.1279296875z M185.8333984375,50.537109375l0-0.408203125q0-1.009765625,0.5048828125-1.8046875t1.5146484375-0.794921875q0.12890625,0,0.2470703125,0.021484375t0.2470703125,0.021484375q0.2578125,0.04296875,0.6767578125,0.2041015625t0.4189453125,0.5048828125l0,0.04296875q-0.0859375,0.171875-0.107421875,0.3544921875t-0.107421875,0.3115234375l0.04296875-0.04296875q-0.2578125,0.666015625-0.4189453125,1.07421875t-0.3544921875,0.6552734375t-0.4833984375,0.3544921875t-0.8271484375,0.107421875q-0.0859375,0-0.30078125-0.021484375t-0.4619140625-0.0859375t-0.4189453125-0.171875t-0.171875-0.322265625z"/><path fill="#" d=""/></svg>
