<svg data-v-423bf9ae="" xmlns="http://www.w3.org/2000/svg" viewBox="0 0 536 90" class="iconLeft"><!----><!----><defs data-v-423bf9ae=""><linearGradient data-v-423bf9ae="" gradientTransform="rotate(25)" id="d9483208-2185-4769-9ade-bf69382d23f4" x1="0%" y1="0%" x2="100%" y2="0%"><stop data-v-423bf9ae="" offset="0%" style="stop-color: rgb(195, 55, 100); stop-opacity: 1;"></stop><stop data-v-423bf9ae="" offset="100%" style="stop-color: rgb(29, 38, 113); stop-opacity: 1;"></stop></linearGradient></defs><g data-v-423bf9ae="" id="1f666d6b-6884-4d30-979b-7d17d03da6e7" fill="url(#d9483208-2185-4769-9ade-bf69382d23f4)" transform="matrix(4.243281654165035,0,0,4.243281654165035,104.65346602991065,-16.782178618486014)"><path d="M4.51 19.18Q3.53 19.18 2.79 18.73Q2.06 18.27 1.66 17.44Q1.26 16.60 1.26 15.50L1.26 15.50Q1.26 14.01 1.87 12.87Q2.48 11.72 3.57 11.07Q4.66 10.43 6.06 10.43L6.06 10.43Q6.69 10.43 7.15 10.54L7.15 10.54Q7.32 10.75 7.35 11.07L7.35 11.07Q5.88 11.07 4.84 11.65Q3.79 12.22 3.26 13.25Q2.73 14.28 2.73 15.61L2.73 15.61Q2.73 16.88 3.21 17.63Q3.70 18.37 4.58 18.37L4.58 18.37Q5.47 18.37 6.20 17.86Q6.93 17.35 7.39 16.42Q7.85 15.48 7.98 14.27L7.98 14.27Q7.39 13.87 7.13 13.45Q6.87 13.02 6.87 12.45L6.87 12.45Q6.87 11.98 7.14 11.68Q7.41 11.38 7.83 11.38L7.83 11.38Q8.43 11.38 8.76 11.94Q9.09 12.50 9.09 13.51L9.09 13.51Q9.09 15.06 8.48 16.37Q7.87 17.67 6.82 18.42Q5.77 19.18 4.51 19.18L4.51 19.18ZM12.38 19.18Q12.05 19.18 11.87 18.96Q11.68 18.73 11.68 18.30L11.68 18.30Q11.68 17.64 12.15 14.53Q12.63 11.41 13.06 9.07L13.06 9.07L12.49 8.47Q12.75 8.25 13.14 8.11Q13.52 7.98 13.85 7.98L13.85 7.98Q14.18 7.98 14.32 8.14Q14.46 8.30 14.46 8.69L14.46 8.69Q14.46 8.96 14.11 10.60L14.11 10.60Q13.59 13.19 13.30 14.99Q13.01 16.79 13.01 18.17L13.01 18.17Q13.01 18.34 13.08 18.56Q13.15 18.77 13.26 18.86L13.26 18.86Q12.88 19.18 12.38 19.18L12.38 19.18ZM23.18 18.27Q23.18 18.70 23.38 18.87L23.38 18.87Q23.06 19.18 22.60 19.18L22.60 19.18Q22.20 19.18 22.02 18.88Q21.83 18.58 21.83 17.95L21.83 17.95L21.83 17.81L21.69 17.74Q21.27 18.37 20.52 18.77Q19.78 19.18 19.11 19.18L19.11 19.18Q17.96 19.18 17.41 18.63Q16.86 18.07 16.86 16.91L16.86 16.91Q16.86 16.32 16.96 15.65Q17.07 14.98 17.25 14.07L17.25 14.07Q17.43 13.17 17.51 12.68Q17.58 12.18 17.58 11.76L17.58 11.76Q17.58 11.27 17.46 10.74L17.46 10.74Q17.67 10.60 17.89 10.51Q18.12 10.43 18.27 10.43L18.27 10.43Q18.65 10.43 18.82 10.64Q18.98 10.85 18.98 11.31L18.98 11.31Q18.98 11.66 18.87 12.30Q18.76 12.94 18.54 14.00L18.54 14.00Q18.10 16.03 18.10 16.56L18.10 16.56Q18.10 17.42 18.47 17.86Q18.84 18.31 19.54 18.31L19.54 18.31Q20.27 18.31 20.91 17.84Q21.55 17.37 21.99 16.52L21.99 16.52Q22.25 15.08 23.04 11.66L23.04 11.66L22.53 10.91Q22.62 10.74 23.04 10.58Q23.46 10.43 23.81 10.43L23.81 10.43Q24.19 10.43 24.35 10.58Q24.51 10.74 24.51 11.13L24.51 11.13Q24.51 11.20 24.28 12.15L24.28 12.15Q23.81 14.01 23.50 15.60Q23.18 17.19 23.18 18.27L23.18 18.27ZM37.52 11.44Q37.52 12.31 36.72 14.11Q35.92 15.92 34.43 18.42L34.43 18.42L34.62 18.76Q34.44 18.94 34.08 19.06Q33.73 19.18 33.39 19.18L33.39 19.18Q32.76 19.18 32.54 18.75Q32.31 18.31 32.26 17.49L32.26 17.49L32.09 15.12L31.84 15.58Q31.01 17.08 30.45 17.86Q29.89 18.63 29.47 18.91Q29.05 19.18 28.57 19.18L28.57 19.18Q28.25 19.18 28.10 19.05Q27.94 18.93 27.88 18.63Q27.82 18.33 27.82 17.72L27.82 17.72L27.83 15.40Q27.83 13.69 27.64 12.54Q27.45 11.40 26.89 10.71L26.89 10.71Q27.26 10.43 27.72 10.43L27.72 10.43Q28.31 10.43 28.59 10.86Q28.88 11.28 28.99 12.23Q29.09 13.17 29.09 14.98L29.09 14.98L29.09 17.50Q29.09 17.99 29.08 18.10L29.08 18.10L29.22 18.10Q31.00 15.79 31.98 13.37L31.98 13.37L31.82 11.19Q31.82 11.19 31.82 11.18Q31.82 11.17 31.84 11.17L31.84 11.17Q31.81 11.14 31.81 11.13L31.81 11.13Q31.98 11.03 32.00 11.02L32.00 11.02Q32.19 10.91 32.44 10.86L32.44 10.86Q32.52 10.85 32.70 10.85L32.70 10.85Q33.05 10.85 33.26 11.10Q33.47 11.35 33.47 11.79L33.47 11.79Q33.47 12.40 33.07 13.26L33.07 13.26L33.22 18.10L33.36 18.10Q34.87 15.64 35.55 14.16Q36.22 12.68 36.22 11.91L36.22 11.91Q36.22 11.19 35.92 10.71L35.92 10.71Q36.26 10.53 36.44 10.48Q36.62 10.43 36.86 10.43L36.86 10.43Q37.16 10.43 37.34 10.70Q37.52 10.98 37.52 11.44L37.52 11.44ZM47.57 11.30Q47.57 11.63 47.49 12.06Q47.40 12.49 47.18 13.43L47.18 13.43Q46.83 14.91 46.63 16.00Q46.44 17.09 46.44 18.27L46.44 18.27Q46.44 18.66 46.63 18.86L46.63 18.86Q46.31 19.18 45.92 19.18L45.92 19.18Q45.51 19.18 45.29 18.91Q45.07 18.65 45.07 18.13L45.07 18.13Q45.07 17.77 45.18 17.21L45.18 17.21L45.04 17.14Q44.52 18.12 43.74 18.65Q42.97 19.18 42.08 19.18L42.08 19.18Q41.33 19.18 40.75 18.77Q40.18 18.37 39.87 17.62Q39.55 16.87 39.55 15.89L39.55 15.89Q39.55 14.39 40.26 13.14Q40.98 11.89 42.20 11.16Q43.43 10.43 44.87 10.43L44.87 10.43Q45.53 10.43 46.24 10.54L46.24 10.54Q46.38 10.77 46.40 10.93L46.40 10.93Q46.63 10.78 46.89 10.78L46.89 10.78Q47.21 10.78 47.39 10.91Q47.57 11.05 47.57 11.30L47.57 11.30ZM42.62 18.13Q45.33 18.13 46.23 11.07L46.23 11.07Q44.58 11.10 43.40 11.75Q42.22 12.39 41.62 13.49Q41.01 14.59 41.01 15.97L41.01 15.97Q41.01 17.00 41.43 17.56Q41.85 18.13 42.62 18.13L42.62 18.13ZM59.72 9.27Q59.72 9.42 59.37 11.59L59.37 11.59Q58.51 16.90 58.51 17.81L58.51 17.81Q58.51 18.52 58.81 18.91L58.81 18.91Q58.31 19.21 57.90 19.21L57.90 19.21L57.86 19.21Q56.98 19.19 56.44 18.63Q55.90 18.06 55.22 16.28Q54.53 14.50 53.10 10.09L53.10 10.09L53.03 10.09L52.85 11.23Q51.93 16.88 51.93 17.79L51.93 17.79Q51.93 18.51 52.23 18.90L52.23 18.90Q51.76 19.19 51.32 19.19L51.32 19.19Q50.90 19.19 50.71 18.97Q50.51 18.75 50.51 18.24L50.51 18.24Q50.51 17.37 50.75 15.61Q50.99 13.85 51.65 9.84L51.65 9.84L51.28 9.14Q52.08 8.67 52.63 8.67L52.63 8.67L52.64 8.67L52.64 8.67L52.65 8.67Q53.34 8.68 53.82 9.28Q54.31 9.88 54.98 11.67Q55.65 13.45 57.01 17.65L57.01 17.65L57.11 17.65Q57.18 16.73 57.43 14.97Q57.68 13.20 58.23 9.84L58.23 9.84L57.79 9.14Q58.63 8.67 59.22 8.67L59.22 8.67Q59.72 8.67 59.72 9.27L59.72 9.27ZM64.27 9.13Q63.88 9.13 63.65 8.94Q63.42 8.75 63.42 8.43L63.42 8.43Q63.42 8.06 63.71 7.78Q64.01 7.49 64.51 7.49L64.51 7.49Q64.92 7.49 65.14 7.69Q65.37 7.88 65.37 8.19L65.37 8.19Q65.37 8.58 65.06 8.86Q64.76 9.13 64.27 9.13L64.27 9.13ZM62.93 19.18Q62.55 19.18 62.36 18.99Q62.16 18.80 62.16 18.37L62.16 18.37Q62.16 17.78 62.43 16.26Q62.71 14.74 63.43 11.48L63.43 11.48L62.86 10.91Q63.13 10.68 63.49 10.56Q63.85 10.43 64.15 10.43L64.15 10.43Q64.53 10.43 64.69 10.58Q64.85 10.74 64.85 11.13L64.85 11.13Q64.85 11.20 64.61 12.15L64.61 12.15Q64.15 14.01 63.83 15.60Q63.52 17.19 63.52 18.27L63.52 18.27Q63.52 18.70 63.71 18.87L63.71 18.87Q63.36 19.18 62.93 19.18L62.93 19.18ZM70.24 12.28Q71.16 12.11 71.61 11.96L71.61 11.96Q71.71 12.18 71.71 12.38L71.71 12.38Q71.71 12.80 71.30 13.00Q70.90 13.20 70.27 13.23L70.27 13.23Q69.69 15.37 69.31 17.54Q68.94 19.70 68.94 20.72L68.94 20.72Q68.94 21.15 69.20 21.32L69.20 21.32Q68.71 21.63 68.35 21.63L68.35 21.63Q67.98 21.63 67.79 21.38Q67.59 21.13 67.59 20.68L67.59 20.68Q67.59 19.99 67.89 18.43Q68.18 16.87 68.91 13.36L68.91 13.36Q68.10 13.48 67.58 13.65L67.58 13.65Q67.48 13.45 67.48 13.23L67.48 13.23Q67.48 12.80 67.93 12.59Q68.38 12.39 69.03 12.39L69.03 12.39Q68.92 11.05 68.92 10.22L68.92 10.22Q68.92 8.92 69.43 8.37Q69.93 7.81 70.71 7.81L70.71 7.81Q71.22 7.81 71.55 8.09Q71.88 8.36 71.88 8.76L71.88 8.76Q71.88 9.17 71.60 9.42Q71.33 9.66 70.90 9.66L70.90 9.66Q70.24 9.66 69.79 9.25L69.79 9.25L69.68 9.35L70.24 12.28ZM80.49 12.42Q80.49 13.86 79.00 14.67Q77.52 15.48 74.75 15.57L74.75 15.57L74.75 15.88Q74.75 17.04 75.19 17.70Q75.63 18.37 76.40 18.37L76.40 18.37Q77.35 18.37 77.96 17.78Q78.57 17.19 78.62 16.21L78.62 16.21Q79.62 16.21 79.62 16.97L79.62 16.97Q79.62 17.53 79.18 18.04Q78.75 18.55 77.99 18.87Q77.22 19.18 76.30 19.18L76.30 19.18Q74.87 19.18 74.07 18.28Q73.28 17.37 73.28 15.78L73.28 15.78Q73.28 14.27 73.92 13.04Q74.56 11.82 75.70 11.12Q76.83 10.43 78.23 10.43L78.23 10.43Q79.30 10.43 79.89 10.96Q80.49 11.48 80.49 12.42L80.49 12.42ZM78.05 11.12Q77.28 11.12 76.60 11.60Q75.92 12.08 75.45 12.94Q74.98 13.79 74.82 14.85L74.82 14.85Q76.89 14.84 78.04 14.17Q79.20 13.50 79.20 12.29L79.20 12.29Q79.20 11.76 78.88 11.44Q78.57 11.12 78.05 11.12L78.05 11.12ZM83.52 19.18Q82.74 19.18 82.74 18.37L82.74 18.37Q82.74 17.64 83.16 15.55Q83.58 13.47 84.04 11.70L84.04 11.70L83.44 11.10Q83.72 10.82 84.13 10.65Q84.53 10.49 84.81 10.49L84.81 10.49Q85.19 10.49 85.32 10.63Q85.46 10.77 85.46 11.17L85.46 11.17Q85.46 11.55 85.33 12.03Q85.20 12.50 84.99 12.92L84.99 12.92L85.13 12.99Q85.83 11.63 86.67 11.03Q87.50 10.43 88.52 10.43L88.52 10.43Q89.43 10.43 89.82 10.91Q90.20 11.40 90.20 12.25L90.20 12.25Q90.20 12.54 90.12 12.92L90.12 12.92L90.26 12.99Q90.99 11.63 91.85 11.03Q92.71 10.43 93.76 10.43L93.76 10.43Q94.68 10.43 95.13 10.89Q95.58 11.35 95.58 12.33L95.58 12.33Q95.58 12.89 95.46 13.50Q95.34 14.10 95.10 15.09L95.10 15.09Q94.84 16.13 94.70 16.85Q94.57 17.57 94.57 18.27L94.57 18.27Q94.57 18.70 94.71 18.86L94.71 18.86Q94.39 19.18 94.00 19.18L94.00 19.18Q93.21 19.18 93.21 18.30L93.21 18.30Q93.21 17.81 93.32 17.16Q93.44 16.52 93.67 15.37L93.67 15.37Q93.91 14.28 94.02 13.68Q94.12 13.08 94.12 12.63L94.12 12.63Q94.12 11.37 93.16 11.37L93.16 11.37Q92.30 11.37 91.41 12.26Q90.51 13.16 89.92 14.74Q89.33 16.32 89.33 18.27L89.33 18.27Q89.33 18.70 89.47 18.86L89.47 18.86Q89.15 19.18 88.76 19.18L88.76 19.18Q87.98 19.18 87.98 18.30L87.98 18.30Q87.98 17.81 88.09 17.16Q88.20 16.52 88.44 15.37L88.44 15.37Q88.68 14.28 88.78 13.68Q88.89 13.08 88.89 12.63L88.89 12.63Q88.89 11.37 87.92 11.37L87.92 11.37Q87.07 11.37 86.17 12.26Q85.27 13.16 84.69 14.74Q84.10 16.32 84.10 18.27L84.10 18.27Q84.10 18.70 84.24 18.86L84.24 18.86Q83.92 19.18 83.52 19.18L83.52 19.18ZM100.41 9.13Q100.02 9.13 99.79 8.94Q99.55 8.75 99.55 8.43L99.55 8.43Q99.55 8.06 99.85 7.78Q100.14 7.49 100.65 7.49L100.65 7.49Q101.05 7.49 101.28 7.69Q101.50 7.88 101.50 8.19L101.50 8.19Q101.50 8.58 101.20 8.86Q100.90 9.13 100.41 9.13L100.41 9.13ZM99.06 19.18Q98.69 19.18 98.49 18.99Q98.29 18.80 98.29 18.37L98.29 18.37Q98.29 17.78 98.57 16.26Q98.84 14.74 99.57 11.48L99.57 11.48L98.99 10.91Q99.26 10.68 99.62 10.56Q99.99 10.43 100.28 10.43L100.28 10.43Q100.66 10.43 100.82 10.58Q100.98 10.74 100.98 11.13L100.98 11.13Q100.98 11.20 100.74 12.15L100.74 12.15Q100.28 14.01 99.97 15.60Q99.65 17.19 99.65 18.27L99.65 18.27Q99.65 18.70 99.85 18.87L99.85 18.87Q99.50 19.18 99.06 19.18L99.06 19.18Z"></path></g><!----><g data-v-423bf9ae="" id="96c45803-9d14-4e22-8fbb-057d569e36f3" transform="matrix(2.8125,0,0,2.8125,0,0)" stroke="none" fill="#7C2282"><path d="M4.029 14.362L14.362 4.028l.707.707L4.736 15.07zM17.135 27.47L27.47 17.135l.707.707-10.333 10.333zM4.029 17.841l.707-.707 10.333 10.334-.707.707zM17.135 4.735l.708-.707L28.176 14.36l-.707.707z"></path><g><path d="M16 1.414l1.683 1.683L16 4.779l-1.683-1.683L16 1.414M16 0l-3.097 3.097L16 6.194l3.097-3.097L16 0zM16 27.221l1.683 1.683L16 30.586l-1.683-1.683L16 27.221m0-1.415l-3.097 3.097L16 32l3.097-3.097L16 25.806zM3.097 14.317L4.779 16l-1.683 1.683L1.414 16l1.683-1.683m0-1.414L0 16l3.097 3.097L6.194 16l-3.097-3.097zM28.903 14.317L30.586 16l-1.683 1.683L27.221 16l1.682-1.683m0-1.414L25.806 16l3.097 3.097L32 16l-3.097-3.097z"></path></g></g><!----></svg>